<mxfile host="app.diagrams.net" modified="2023-10-22T13:37:01.973Z" agent="Mozilla/5.0 (Windows NT 10.0; Win64; x64) AppleWebKit/537.36 (KHTML, like Gecko) Chrome/118.0.0.0 Safari/537.36" etag="YM4KABqhGAOdCfTWMVJn" version="22.0.6" type="device">
  <diagram name="Page-1" id="hfgFyhV5ZqBrtTP3S2_x">
    <mxGraphModel dx="2245" dy="615" grid="1" gridSize="10" guides="1" tooltips="1" connect="1" arrows="1" fold="1" page="1" pageScale="1" pageWidth="850" pageHeight="1100" math="0" shadow="0">
      <root>
        <mxCell id="0" />
        <mxCell id="1" parent="0" />
        <mxCell id="m59LmiQh6J5oxbyo1n5S-24" value="&amp;lt;&amp;lt;Value Object&amp;gt;&amp;gt;&lt;br style=&quot;border-color: var(--border-color);&quot;&gt;Tipo deTarefa" style="rounded=0;whiteSpace=wrap;html=1;" vertex="1" parent="1">
          <mxGeometry x="-30.17999999999995" y="340" width="120" height="60" as="geometry" />
        </mxCell>
        <mxCell id="m59LmiQh6J5oxbyo1n5S-25" value="&amp;lt;&amp;lt;Root&amp;gt;&amp;gt;&lt;br&gt;&amp;lt;&amp;lt;Entity&amp;gt;&amp;gt;&lt;br style=&quot;border-color: var(--border-color);&quot;&gt;Tipo de Dispositivo" style="rounded=0;whiteSpace=wrap;html=1;" vertex="1" parent="1">
          <mxGeometry x="-70.17999999999995" y="180" width="120" height="60" as="geometry" />
        </mxCell>
        <mxCell id="m59LmiQh6J5oxbyo1n5S-26" value="1" style="text;html=1;align=center;verticalAlign=middle;resizable=0;points=[];autosize=1;strokeColor=none;fillColor=none;" vertex="1" parent="1">
          <mxGeometry x="-25.17999999999995" y="150" width="30" height="30" as="geometry" />
        </mxCell>
        <mxCell id="m59LmiQh6J5oxbyo1n5S-27" value="&amp;lt;&amp;lt;Value Object&amp;gt;&amp;gt;&lt;br style=&quot;border-color: var(--border-color);&quot;&gt;Modelo" style="rounded=0;whiteSpace=wrap;html=1;" vertex="1" parent="1">
          <mxGeometry x="139.82000000000005" y="180" width="120" height="60" as="geometry" />
        </mxCell>
        <mxCell id="m59LmiQh6J5oxbyo1n5S-28" value="" style="endArrow=diamondThin;endFill=1;endSize=24;html=1;rounded=0;entryX=0.5;entryY=0;entryDx=0;entryDy=0;exitX=0.5;exitY=1;exitDx=0;exitDy=0;" edge="1" parent="1" source="m59LmiQh6J5oxbyo1n5S-25" target="m59LmiQh6J5oxbyo1n5S-24">
          <mxGeometry width="160" relative="1" as="geometry">
            <mxPoint x="209.82000000000005" y="240" as="sourcePoint" />
            <mxPoint x="179.82000000000005" y="-100" as="targetPoint" />
            <Array as="points" />
          </mxGeometry>
        </mxCell>
        <mxCell id="m59LmiQh6J5oxbyo1n5S-29" value="" style="endArrow=diamondThin;endFill=1;endSize=24;html=1;rounded=0;exitX=1;exitY=0.5;exitDx=0;exitDy=0;entryX=0;entryY=0.5;entryDx=0;entryDy=0;" edge="1" parent="1" source="m59LmiQh6J5oxbyo1n5S-25" target="m59LmiQh6J5oxbyo1n5S-27">
          <mxGeometry width="160" relative="1" as="geometry">
            <mxPoint x="249.82000000000005" y="40" as="sourcePoint" />
            <mxPoint x="349.82000000000005" y="-70" as="targetPoint" />
          </mxGeometry>
        </mxCell>
        <mxCell id="m59LmiQh6J5oxbyo1n5S-30" value="&amp;lt;&amp;lt;Value Object&amp;gt;&amp;gt;&lt;br style=&quot;border-color: var(--border-color);&quot;&gt;Marca" style="rounded=0;whiteSpace=wrap;html=1;" vertex="1" parent="1">
          <mxGeometry x="89.82000000000005" y="270" width="120" height="60" as="geometry" />
        </mxCell>
        <mxCell id="m59LmiQh6J5oxbyo1n5S-31" value="" style="endArrow=diamondThin;endFill=1;endSize=24;html=1;rounded=0;exitX=1;exitY=1;exitDx=0;exitDy=0;entryX=0;entryY=0;entryDx=0;entryDy=0;" edge="1" parent="1" source="m59LmiQh6J5oxbyo1n5S-25" target="m59LmiQh6J5oxbyo1n5S-30">
          <mxGeometry width="160" relative="1" as="geometry">
            <mxPoint x="59.82000000000005" y="220" as="sourcePoint" />
            <mxPoint x="149.82000000000005" y="220" as="targetPoint" />
          </mxGeometry>
        </mxCell>
        <mxCell id="m59LmiQh6J5oxbyo1n5S-32" value="" style="endArrow=diamondThin;endFill=1;endSize=24;html=1;rounded=0;exitX=0;exitY=1;exitDx=0;exitDy=0;entryX=0.5;entryY=0;entryDx=0;entryDy=0;" edge="1" parent="1" source="m59LmiQh6J5oxbyo1n5S-25" target="m59LmiQh6J5oxbyo1n5S-33">
          <mxGeometry width="160" relative="1" as="geometry">
            <mxPoint x="-0.17999999999994998" y="250" as="sourcePoint" />
            <mxPoint x="-130.17999999999995" y="320" as="targetPoint" />
            <Array as="points" />
          </mxGeometry>
        </mxCell>
        <mxCell id="m59LmiQh6J5oxbyo1n5S-33" value="&amp;lt;&amp;lt;Value Object&amp;gt;&amp;gt;&lt;br style=&quot;border-color: var(--border-color);&quot;&gt;Id Tipo de Dispositivo" style="rounded=0;whiteSpace=wrap;html=1;" vertex="1" parent="1">
          <mxGeometry x="-190.17999999999995" y="300" width="120" height="60" as="geometry" />
        </mxCell>
        <mxCell id="m59LmiQh6J5oxbyo1n5S-34" value="" style="shape=stencil(pZ3Z0iQ3boWfpm8ruC/XY/s9FKHWSDGyWtHSeHl7k5Zr6XOyPvYfvtMC/JXJJEHg4AD4lP/2x88//P75Uwp//Pn1yz8+/+cvP/7586f8L59S+uW3nz9//eXP9U+f8r9+yn/76cvXz3//+uWfv/3417///sOW3P/071/+Y/+F//pLr9RbqVsrhf/+67/E25j/+x/+7S/5X3/57VW+3HoR+R5BPt9mFvnSUD53kU/0POn+80/5SM8Tb3N8Ix/uD/hOPlWR/78FuJYPt9pFvo738nneZhP5wvIlqXwC+XGbReQzrOeSr1Hl6XnGLWZ9ngDy/dZ1fQqs55Iv+vyV3rf78zTYD7ndhn1flq+6fwY9T7tl/V6T5WOQ/RwqyNf7cX3Z/x3lq55H3A/1lvW8F5aPak8qyRfd//HWWF7WP+L5XfJiTxKvZ7nFJvKR9r/Zt3T/4O/kexB5sodLvkyRb/z3kz5/p/XMt6DPM2n/JLX/+f7B38nL/bIMPH2vdN++T/lK8uvzB5Hv9Dxre2WRx/ddx+Pb9Sy8Hx7Xz1Me7eEyH/r3G71vuH/+p/yg/RPuy32Xr7fEzyP7od4ayKd5a9+ex3YL8PxLXtaz4X235EMV+Qnvm8atf/u+/b4B38mXKPKHvy/fd6A93H8uiPyE+27Jy/PPuwF+J1+byJN/suSz3BcBL4ylkLIqkAVaCkEsdLz/l2uFZi7iujPoHdrdpD0UEm+6dmtNFSrt6nZ3Mh4KDzv5TkHd1nx3pN4piF8Zyy2wQkyqUGlnNz3Jsd4CbdXlSgxVaLQ1qvpysd03yzuFZgrkPS0F8aZjR3d3KRR5h8Fbo9p5GHeL9lZBlnXijb8N7rcfLgXeS9VckHB6JPEZt5PGvyBGdXs5vEohqsKgI1o0zNr3OO3Wcr+GHwrlvm7frzBolVyh8hH1d3g459+vgB9uKYhz148vPVSh03Vl7vW6f9JBoagCXihLQbbGvCVeVom4tg9BdqmomVlOCvkw24VqqtB5WSUoyo+w/52CWI2l0MlUFjUCy9HNvEqhqMKgX8j3A/lQyOz55FsTz3z9Jq3S+ntZFSi2Wwrp262RH6btWiHp9l4K+OE8Glk3EJ24pOHUBgBoeyd1fzYiQZsvqplZCujxRY0I88GljBZSTf5w8X5cXhQIRNkYxbfvUA5XVrgHXS8K6NYHdbAK43BLIX374Uq8u1zvFEJXhQHvsK5xsUsloZlZCq2oAp2HpVCCKkxYpaUgnsCGR2EvLd9lJlUg27qdHVlWNgJLQTbfUshgZpaCGIGlQJfi8vB08z2uyXcKcoBKRcx4+5BNFQikXQrJfoF8jWghTWkIGywF3UsNcaGloLhEQ+BjKciFUjqe6fgwvS8K5DosBd3eHbGbHY90Vei0SsXMzOB3KIoeLwWKUJaCwMdLgfDpaNfuUiAAZ8eFpjBYQRC9Mvmlkx2giRjdUhAMZylk/gVxf5YC+Ro7PjeFCtY7Rg3xCzuJMerFvhTQ3MdbNIUJHlkMiuRUvhQ3TuIKtL3D3SV8UaCwbCkEV4BVmnqklzwdh6ke35aHN1j7rKg8ob1Dr9zK2aahYNeSp323DntXeUKW7OqpjHV1DTQqZwe7gbEB0dt+8X3pKmx6kGu8o0Zv5OUSWfJk4h/Y7os8fa+q9nrJU8hd9RAv+QbftyqIVjkMM9xjydOZt1C1MtBY7qjiizxhQ8UOPOOSRYGemtCXymayEmb3s+2fjNn0rM5gZf/UAsIljxGknceM5yUpUlAL7v+k8GLlbE1SlLeyL5vUb1zyk2JyO1+V3RV734r7P9r7NkQhoiZHljytf1RXpXY873YHL3n+++Iw1oHZqWjJrIHZvqDgV50Y3ARNvi/5Dt/rwRW4yze+4IN+3yVP0EDQ+33JU5wSFI9vzLax5GNj9o+RYVrC82ioQEvoJq7VkL+fMXoNGg4s+cJ/P6g8nd+H9/KQL3cP6p18VXlihwQlY7SK0Yklf1vDJFNQssqS5/WX+6t1BPiu5Am+dvmB98uVPGFvLs/AmMn35YHz8yeVP6znt9+3c+o06H3U4+m8yPMzGybo/b7kK76v+D8931GHd/JV5em+sIhqyROAFhTi7gXTh0GRpP7wAN/Jf3vf9Yp5A7P/S57826AZ2d4O30uyPUu+4P0bTB6D5juI9ZDvGG9GtT9LHhFS2z+cvY2KXnaGzqPmqpY8+2NCRuoT4x0jO/WJ+yfp/hkB79+sMMqSJ38jK1l0RLTP+Q6/vchT1rYo2W+c4inBvkbC81IUzl7y9DxV7e2SHxhvir80MtrzpvjGkk9gb9t9t7/Ik7/R797LizyBiV39n5ERQO3q345HhPgGP9H9U/A8DvWHlzyRi4wMtuQZXxpZ5ek8OqK2FBCoDPf98qKAEUzUvNRWoBAmaspyKRBDOSY1uoMpghvOtVVqjGErp+2oIH79ScGy2WcF3dlHBTUVB4V6sfcOCiN8SKFp6vis8MEP1z+6rF0vqLPC8M0HHtRO9/l5oCM6tIBjFM4aTSXC7TPNaVe9dQrndObdKXhV4PS37yXCDbbjaMtKGRdHSg6WcrtGtqx0VW3syVbpoOBH9KCgVNiDQtZw6LRK2fypgvmHZOm+05cuilAf7ocNIfuZJgizmo9RThxJPdP1RHnUVaq8l5qGCYPz5c6GXQqEa+zEhSxrY1Kle0rtg7znwaFL6nZEO7Nhh4K9Y2DOPw0z94OJcNO+w2Tu9rTdOpm7PTVAmgH3kpcXzIARZw5q7ienzHJUOvl8oMDvFCRpOR81HO8UxCObnHXKBtMvBSzqShqXzIS4fk4aOCwFSlxucmBVBWIV5Ky36MynQic500sBKxWzgsVL4VCKNOQXOHuza7WiKmAxYdF7eikQ/piLvQNz6LPRZ2fFgCNXTZnMihDMUtBHekSl1wpNTeVSoCA0N6VHTUaFclPYaXZMa+SuOP/sXAVnVTeTgeNsvLbJSFKeSutfCgRNZHMSlwItawlq7idXGhRDz+ZANKkkTY9NZgrt4umhCnTiSlai9FJIpFBsWblaolS945YCXSjFwrKtQMvaFGScE21r6crd3gpUk241X0uBQvwyNJ6efE9vQtf8oEL/kEK1VMFJIdqlOBGm2NQO23yokC720kFhfuyRshYXnxSKEoy2Apy4avUYey+BIavVrMbEaLc+CPCvJ444Ok2Rk32mCWTtGk8frEYdGtJMht3rlfUmcmud6nvPwcs6lbm1FIgJsRP19guUilkKaiqZ3NqCfYeOhmzn6rsqkCewFCR9ti52ukVbtEdqiGu0pISsWZFw1IyBMysG4C1dOIlUF9Oy5igmIyfNkiYzYziwFIRFMbmGfikM8+4pHGjFLvaIvIKlkOTEceK5WZuEHSmygoaWfESbNW5Y8TR5M60oJX6F+JTMXwqSvR2NszlGJx9Mt9oKhv6Q39qKJnwHtydoxjgcGQOOrSCPxA0lWjFwM/J3sNrPwSShVq+ylPwLipwwLblZU5I+79/+nUI1BYp2m5U2d8ZmmpVXdK40WAqeG6coq1kRe+/YuqUZRtY7sn9aV8vXG2YHloKAm0sBt8bQ+6FX9ASaZQcOjIlmJVO9IvrTplrvXrHKtwfdrb0g1NKtOK5zSqRHoxkVfIce1Qj0gnn+njTE79wG5cnjeVEg12H972YK5JGtJxZucGcu8VKQ4HUpkPuzN4Ls1oSwXbeGCEuBsPvNtkmqQHyjbshJ53ZD6wTLtdsjf7iuJeZLgYzxZtAMVSDOxZNC86JASZc+jYUWES7qVpnZuVh0WLFo5wLw4cQvbjM2DJXuAXGNpSDU087U32EVUMtSkfszkuayGreC2Y7CUAXKvG4yTVMFOqKbHVNVgSrRhtWkbwInPZJ5xs8b452CoD9LgUouloKACPsSoxqlqq70UiA3dCkI52Tfq7SXmprK1hHBWgoS+LWOzsn2tGVrNDSVwyqbDszhnUybqkCWb4UX4s20ioZsjAuyNH64Yez2ggmLpSD3Q+PQcqfr5MNlrNcY0wjZGWvSx7xi0NMqef+uiA0Rhhnjxh0KpxUptkPRYVAXbldhEIssKDBY+UxP4zVX5qVOL+VsGA48k5oPBU7rTC8lKUil3FnQpAr4HaLeD5X30lIQ/tJGYMGQ7TyrPFLEW3RGq6cKvKzejW8i+jONnlcmGuNpFOfCDXOm4d6lYx5oesc/7hI0g5VnM5tiBquF5r4rfoAKJ1JnsDJ5Jp4uqyFu6FIg6sI2M6KQMIeyFaIqEHKyFLSZQMQMx1aIqoBXltnWEk6rJCF+CWj5XCFPLBD2d1gKxMHaCtLOZjBleCpA+2wp/PZ+SKpAnvFSEK8yczJ4WllZ5i5y+4ha0x+qw5neYYfpSNPoebtRMP2C5Xafef13CoK3ZkZONv8jqAKlRDYsLgoFq3Gm8TU2v4IeqVz8AkVZs178AmXAZ7VfyIh7T+PCZYYpprEpMreSnM0aebHlm12TwZkbF82uPb5zREd3Z66s3RnlgZ5ki4cCF6JOAwZz4GUdyj5NEwO/aTnFTafjXxDvPg0ENzfZQh6pY5bmmWd9KHAz3GnISeL6z51cll9gQuy0nla7vzO/tJTQPInEbxWsuyVuDaMuxIlB0zRPIDImMKdSSJ4tpd4+kvUxxRvIrt1Y2bufGovGiuDm/tLyC1x6POdFx9rDssodF7n195N89FBgEuNO8suXjtiMeSf5rdUwvvSwlw7ozcyh4UDkeQXT8NbdpIdWqWuKkFNZs1u2GRPm04nP6CHu20QbXBN0uikEkjlmR6apDRuYbpkGdnUOfozuyLSLafyxjgyeJS89iA6+ZDUsmtEP6wnbkbg4LU3e+C4vhsmye24NzhqygzYrWLBGdneS9dxgU2qodWWjkgwnYTApKvW6YjtbBwyYIbyRIf376McH67WGNnFH2kPlCeo1F6FgQmnJB3tfwguHQWecAhjWowmjkGHNHCv6UKNpbFcxp7fktUcNIk67NObb/dawXGEUjZfbnbvzTt7OL/FjL1IqDMxny6ggJLcrsgXeRaBzRE15NmSIDcMIGyMc3pMBQ/clH/V+ofN+kb3E/dmHgkAdv1fvyrnjFkq9K7mS769uPd86ft/Nt9D3pfulWz/wju79zvvrfUeMkJ6NtIX3S8/KkmTeZk9637F/0u0+GifqRdTnSWD/N7dD/z7dv90LPzEn5WQTjnJ36t2eh+Ulkjk8T7CqaW6xYMEb4/XNUmq8nm34fjjIZ3v+A4fK1p/etyu/e2BNbGtW7YnAypJPJs9sP/P/kZpq/vBglnPx9SGSwmay6vdC5quRcQemAjc9WJ+H7G2zIoSjfNHnJ/SvxYu/z/L+/Ex8N/tD5LVmFaED/fNnx7yX/cDyWv6PkHA1oJCzC9Wwzo7+yZLXHkpcAdKM3IfxYK0X/hWXpCixAvGBavu/Is1oyZv/TwWOO2csqUKML3ZZkPTHxlx+tTw4p8Gr9Qxkdn81+kLmgaRT4x0uBihT/ZPEA1UNVUvoH5ZheCtC97sWTSBjvL+WfFZ5iu+WfFR5io+KnceIiF0xEjOPfShd8aWI+ENpBvDx97L7N2KCaZcn6oBO2p9LXudRIWe7GFE9YolbqUqzPcgbfsVZ9WIV05FrJa3gISKvuFhFReTyUGvYwQNSr+TRPhT1J5lEUAwfiBiPFIu/IrestopEbjFerBzkLK/7n4oQiqVwud1DsX4pke3PxYBabEF3IY/28+J56H68el/yb6/WE4uR7Xudz6PZKz6Ptt/IPyxF6U/cEv7qvBDefnl+PyifDvK6H7Bk/sJekX9yZQ+xht/sbUASxoflzf4f5Jvit0d5ub+O8tX+Pu3/Zsldtj9dqQsRCYPbf7D9wH+/6P4nvGjJN71/KV4o1rEtIj75HIjznfbHekIe/A3rcsQjGorNBOHeOtsfFl4Hr/90fxXtudWHJW4JEDQ+ShxPBS1NzIjn7HhHuDiYL642Xq4gkaD6bB+0/zXbzBfMfy15y/fRfVGtSJcHTFfLz3K3m9qsBzvmd1a8HzVfjPG75fc7cqKf1PWnPMUjdap/wvh5NdrrQP+qWU/ygcTdK7yI8ilXeBTWzV7gXSh/gacd5D/29y/wwIO8rw/sh1Yu8GTCD4vj4eQPP4tiXuS5lNrwZCyyt0HXg4uQm1XLYr574+Fd5Wk9u/M9KD/leP6hbYHlCzrW03g+4ijvz8/Vx8meH9bH8zUdW2h7PojL2C+Km0/y2vP/JK9Fu/z8yQrG+e9b29OO/kxPViOPLdu7jfvrWB2y86GW/6W/X/S8d8yP7Hyurj/mo41Rfch32/3bMV7rXUtP+P7d+XTdb1hsPKwfAPJb9kQAxduxTDeo/8Z4/rBKssYFrtH9GaxqieqPNa58TlZAi/H45pPo82ChtLWNbFzxaJO1G/ORfKYbjpwaPpMO/e3NF9K/j/XFFp/y8NrRbSYjxjvDqPiF96f1oiunmiUd4or49rBu3DxE/KJyDAtap81sKmjfpnX85+76u9RH5ZFcHnU/c7eQzVeUGjAuqkmaLzgQxZOuZ+VCi6z3XeX1zGpvD4Wvlq8/1DUVzRcf+KjWjagxgbuqP9+4+qZaATXzb6vbW8oPTps5wvfXvOB3EZ4wDU/jVqyzXfgb9L0u4mXcz2bfBlesdJsfwPzhbg3kmF9tfQcOxehWMcBdOC5LEnBmiiVoY+AquqERVeSU0+7O2FQB32Eqp21PiGYFGZQXOUvuhUyRJ+PMqbBXPFY+adVQ5cKNqY5xZGbwVpBlPRSJ2tUXmasZQ7CSm0P1hv/EZPNlbY83/s6VTHIf7IQ/13tJAJ0yW/ipFmlPaTgUVwmForJPMRVDOl0KXtnXEeWc1tp/06C49EnSaIm7tu76x6IKVBiwKyyF+BK4ScZQK5A5tTEtNMvMdZhdfanMYP9SSFYaS9mNdbsJ+pcZvt/Xp8D3x3pgiV8zA/jbwZBl5SFcuwjaFLBvR7n4BWzDUfSOy4ciFmuRmrkr38z2Dhx2zWSdEHhU4jQedj44hlErXZcCIWnT+rfnznXZQY1xPralkUsuM1g6nfzGbOPd6GOoAsGTu5uDnAeuT7yoVwq4l7ZCVwWMyD2CZAqNdywqnBP1l14K6ORaN+mSTk1jpAqp8KTji5Yuma8s2xqFpzPttjQSqFau9AuKvJRDqV+0ZW38HaJiQaWzMbbiosLVGzNqtUfhEQszajry3LFIFCrP+JxRCcKVGUEzaga/ppPl075OzIF1jKQWLhX3we7Hqki5p+uhoN4mrlWuU9vbW/LUh6YA1nWpDo6MLbNa56ltmRiBFvgWNbvUInZz2M17JHmecHvvBkRTFbArn42kevZbf6cg+ZBWGOCd1iiQEcNh8fHuYE0Q5tD2cY05DGNYa07uTD5s+FjjKu1hrOfdsJE+nJUt7EQq18EqzsUhzbBBFK3zI1XbfIN3a7WXHryXirW1HBhwjKKww07vcjWvVKe0yeWnWV24NhGvG1kv9sPM+pG0oLRNboab7KUnN/9MapfOvW01R37unmu/gFkVa3bYubPg8Cbd3JZmmPXuEb90t452OxVOmeZp08Qjjn7pVhrSI9f2Dq1V7zy/u1syqXMAvue9mwJ29e72DtzAtDfLxyeegV2twDpjPN2toe/O0XNJs1K+Mu7WbjX9O6tPy5qtqDwjmNOtaqvzbL1uad5e+MPZrJjOc3y7Jap7YWZEMOZL4VJxaxTYK3OnrJnVUqCwbCkouaaibd3dqWUvcbrrgn7E+fPmfIeGDS6aDeM7j4lQ23oYRNGspPIwCqmZuT+QDr1J0KHKtiqI0DkN5LS3znO4ni7hiwKOr6lGVAzozfgUlBF42FI1Kl7kYUuGJD7ZIm8VJBnH1YnNqlkGD3G4mEbDnWeb+XyHceEXA3K4b/jFCJ6Gl2KzkpbBPU12H3L5DgeSY9H7YTBst0MkGy1MtLY9/+lbqzEZhWt2x02GKXaYJyPaEqZ1NrNWJq7xSNuloMPHMh+grOmEyXdcy+rNTO5+tKJnnXxXee5QsrG8DYOm5sOLG0/6sgKCyR11mjXpntwRuxnuPZmj2oKNR+ai/mYt5Z/ZrUuFag0bD8Na9wRCn3EI71CH8li+Y4qijY7Ezgddz/R5dKQOLz6Mv7TarTl5TmNVUG1OZN/Vovf05Kzl5URO7DdgMz9fsujXGlYh8B0aWqN90rDhqN+hoXVrJw0b8XrS8Cmy36ERP6hxNQsXC/yupu1iBeHVPF/Kml1ODKYweec1pirQNi9VSbKTaRjFumbNiffEntxsL00e8p4N/SHrsdvt2zsQU6pYJcBpmLRN4di0CTA32bgnhwna2cDmyRh+NlbFvlhgWbO1N5yDx7dbvejkApHcbLooM/afnedfFMiFyEZh3D3LaRq79UR80ibeKejQ1oZVZNm6RM2K8N1SENhoN3aFi2Up6IhhBhNytlHPPKk2Z/M5Cq+SUXNnwQO0FJJ5yATJb/LLUAUC/ZeCIChLgdrHZCunmUy4efa2f1GgxHa2gsGZEHd9kpBeFAgQ2c3w5TxwT5gcLSyI6I7mYFPAGWxeCj4AmDyzNK0NNY8eebadfokY6RZNxiodE+1SMnT6mdp7p6CDZ3n0SLJe2oOLE5M33+toNTa5O6oCcU+e3VlfsAGKq5PXVzJAmMx6j4oO1rNB7osCPpIB5oN7hO2S8aEKZDWSzf4cFROqqegtOgpavmSzSgbXwSTvS8qFISkbfMeVM7uRQDAFWiWzrWeF4I9EH86bjR4VdNRzQXQ6WbvsUTAQT8E2X0FIPhotexSEvqJx0UdBuGIpCGA+CvpLT9L2626FvRSHBpiDUyPRuoSMgkZgKRRDRckYx2576aDQ9I47K2in2IOCtfo/K2SzfKhQNAl2VtAjelT44LIayHlWUMtX8VKM6erDsUJ06w3GeJef2AGiEH8paNNn7oIfLbe4jyj9gvErD0bAyktGQYdsWtsHtqxWDzA4eBjmvhUMXK0t+WB6aLdsFo8kt7aKgyd3Ge9+ZM5wmG+Y8S50pydjX2PPrXHywXNAiTEls7+J8RtLrCX8XsYoGEwFMRrS4D5uyW7ZiH2CkrUND+wdWVvpgC5ktLYVE/mglgXpE/tGRSPvDDYoGrB15rJFxZF2owNYH5sv2zlycT5Ux+9ldNkD7SDYGB2ee2Hs2l7R3gabt17x/AYFwTpfMdbmujPLNFjbjYKBoAXwnQsejRvceTpXsLZR6fC9tIw3IW4ZrC029500qnLnvorBmGgB7aHVdPSAEaNNJT3QLH3K9UAc60qe+FUuz33BruTp/rXK0cMA9yt5uq9dviLk5c/PMZPth8ZFb7Y/N32A33eoPOFjwYjACe2/Zah34zLcb8J42o3R8HmURh8P9irb36cUe9BQqQWEPyz5uKfC4/2ibSgmAjjB2mJM9IeDpoGfjfW+7757JvTf3adR5Xl/ar0Kz7kJ6k9WnkMQ1J+v3EcpWtt/rsXysWjMS4naRmlzBdD/0aqnirCngfq7wgifX+K13YiS/cmp8oh52voUpDgm9U8qc5WSjbHLuB+SvW/G9bS2TnswBOVt1D+vCVE2y1dXHh5qbdA26QLjF4lHKo+LL0qFrIe+tApDVu6hURSmqYc+2pqeX/LUMMDaeteI9qfa2LuI/rnV4ix57DOrRLfKfZmrnS+uzzBq0i6jJBKaxps1oL/dbD0DzhWwzFHlAdddkfUlT+lmw2eejYjf4D8Cnham2VgyrvD9OzSfWOYBHxPUcZONqIRa/YcyuUzW2iAzYcaLxifiRdECvKVA/NaloI3W2EOJXj89kVcZo8Z4ZeJs3j09uahCYoVuu4husWgZpsJT2HcjIdlHg5HcpAenDKRSRUurFS4KjNlq8TnNvBQk+fgcmvNOQcCXwvUPsehtXLjL1m6GZAp03KL1CFkKFD9E490favGjDYYrjDhFm0xZuKQ7Wub70E/AM0xLgUDU2NQrLZxbj1YaUzi3vtNq1kSB4ujYNZDbE0f4F7RjwSG9aRMMC7Pio3HgNp2RtsawrZHR+Yp+W2U2xjYlq2Qsh45Wa1kS2yUrFSuJH2ma1UjI7loKAuGXiGzHaB3MCvuQDmqUiNZ7owLypQOStZIx+0vANEqy9p15Mu3CgPM8mWsS1ZPMg6lUUfkBmVu8e6yZO5MikrbLyNwUMtktmhnd2+Gjt1OiZU2aQM0Vm4qkrABr5oxrMvLibmtFy5q1k2TO/OGs9XDmHN5S0JfmM72jzq4KeICsn0COWEqcrMwq8/ygHahKhycurd+ZSFNAWp41UUgTXYfnxJEXBSqoS0XBnT3UlL6D1ccdplQ8m/w+FLiNeypK4UmdjYD1tU2NiU7F2h42pha6QuWUrY1eScxgvlSgoDVZYeMT93mnICfuaXjeKmRVoLg4FWVGpYh+ayrKL06ciUo+IZFD6eQj3ybvVp9BN/jEVRsC1TH7vymeURXIX0rWVnnzvfiRqilQsUeqar0jF+/vRu6ySocbyBrUxMMNZKDVjuzokZqa+8i9T1NTotMKZwlm3N2voyqg+2NEm8gDUlOzzruRt0aziV8BI/bUbaQht49JXSN27sG2W2Zrj2jiDqSuNxzXJe27Q2cS4Vno6jbwDKD9v3XGB/79oV53R+x2U/mtRzqtj8U+DXP7yWYEVH5+a1tW0W/L1tWSO49kI59wL+kcDBbDmznbDB3ORWcjCzGXLVuyLKNvvuS7Pg+WOtnMAu7mnZPP4COjlY0Mxj2BcrI7HHMd282XKxzhtt3iV2c4EsqTsxYuRpxJtOQFPOeZ0dngP+5Xmq1ImvuA5KL7PzKX0NxrbjifL2YcY11n1fg38H6rSn7g3FE2V4K5DLnq9+LcUW5KVgn8veyW584w2WaIc65pl4xGkacbO9tMBwZpsnUnDBjP5a5oXOD9MNRt4og0GzzINelLXlrCBC4InIo8BM6NW0tjXp9iKBnnBktUf4D7hpbkM77J3pak/gy3rC1ZyecBA6BiyfrDTHBLjnOnvQ2hq72iyKF4bMIz5aueRwZxSrVpF5gZLDbz9MAdqJp6jGivivWyighNXP193A8Xz0/JqKv1oQzF1foTMH71fem+uNo/xM0pVcnh/1/59Q+///Dnz3/9y0+//PrrH39+/fKPz6///6cvXz///euXf/724+M//fHzD79/Xv/2Pw==);lineShape=1;" vertex="1" parent="1">
          <mxGeometry x="-220.00316733628244" y="152.5220891905301" width="514.27099593714" height="266.9779027252007" as="geometry" />
        </mxCell>
      </root>
    </mxGraphModel>
  </diagram>
</mxfile>
